<svg fill="none" xmlns="http://www.w3.org/2000/svg" viewBox="0 0 350 350">
  <g id="BlackHoleSolutionsLogo2">
    <g id="Logo">
      <g id="Eclipse">
        <circle id="Ellipse 1" cx="177" cy="140" r="51" fill="#000"/>
      </g>
    </g>
    <g id="Outer">
      <g id="Ellipse1">
        <mask id="path-2-inside-1_15_21" fill="#fff">
          <path d="M237 140c0-11.867-3.519-23.467-10.112-33.334-6.593-9.8672-15.963-17.5575-26.927-22.0988-10.964-4.5412-23.028-5.7294-34.666-3.4143-11.639 2.3151-22.33 8.0295-30.721 16.4207-8.392 8.3914-14.106 19.0824-16.421 30.7214-2.315 11.638-1.127 23.702 3.414 34.666 4.541 10.964 12.232 20.334 22.099 26.927S165.133 200 177 200v-6c-10.68 0-21.121-3.167-30.001-9.101-8.88-5.933-15.801-14.367-19.888-24.234-4.088-9.867-5.157-20.725-3.073-31.2 2.083-10.475 7.226-20.097 14.778-27.649 7.552-7.5518 17.174-12.6948 27.649-14.7784 10.475-2.0836 21.333-1.0142 31.2 3.0729s18.301 11.0085 24.234 19.8885C227.833 118.879 231 129.32 231 140h6Z"/>
        </mask>
        <path d="M237 140c0-11.867-3.519-23.467-10.112-33.334-6.593-9.8672-15.963-17.5575-26.927-22.0988-10.964-4.5412-23.028-5.7294-34.666-3.4143-11.639 2.3151-22.33 8.0295-30.721 16.4207-8.392 8.3914-14.106 19.0824-16.421 30.7214-2.315 11.638-1.127 23.702 3.414 34.666 4.541 10.964 12.232 20.334 22.099 26.927S165.133 200 177 200v-6c-10.68 0-21.121-3.167-30.001-9.101-8.88-5.933-15.801-14.367-19.888-24.234-4.088-9.867-5.157-20.725-3.073-31.2 2.083-10.475 7.226-20.097 14.778-27.649 7.552-7.5518 17.174-12.6948 27.649-14.7784 10.475-2.0836 21.333-1.0142 31.2 3.0729s18.301 11.0085 24.234 19.8885C227.833 118.879 231 129.32 231 140h6Z" stroke="#000" stroke-width="8" stroke-dasharray="8 16 24 32" mask="url(#path-2-inside-1_15_21)"/>
      </g>
      <g id="Ellipse2">
        <mask id="path-3-inside-2_15_21" fill="#fff">
          <path d="M177 210c13.845 0 27.378-4.105 38.89-11.797 11.511-7.692 20.483-18.624 25.782-31.415 5.298-12.791 6.684-26.866 3.983-40.444-2.701-13.579-9.368-26.052-19.158-35.8415-9.789-9.7897-22.262-16.4565-35.841-19.1575-13.578-2.7009-27.653-1.3147-40.444 3.9834-12.791 5.2982-23.723 14.2702-31.415 25.7816C111.105 112.622 107 126.155 107 140h7c0-12.46 3.695-24.641 10.617-35.001 6.923-10.3602 16.762-18.4351 28.274-23.2034s24.179-6.0159 36.4-3.5851c12.22 2.4309 23.446 8.4311 32.257 17.2418 8.81 8.8107 14.811 20.0367 17.241 32.2567 2.431 12.221 1.184 24.888-3.585 36.4-4.768 11.512-12.843 21.351-23.203 28.274C201.641 199.305 189.46 203 177 203v7Z"/>
        </mask>
        <path d="M177 210c13.845 0 27.378-4.105 38.89-11.797 11.511-7.692 20.483-18.624 25.782-31.415 5.298-12.791 6.684-26.866 3.983-40.444-2.701-13.579-9.368-26.052-19.158-35.8415-9.789-9.7897-22.262-16.4565-35.841-19.1575-13.578-2.7009-27.653-1.3147-40.444 3.9834-12.791 5.2982-23.723 14.2702-31.415 25.7816C111.105 112.622 107 126.155 107 140h7c0-12.46 3.695-24.641 10.617-35.001 6.923-10.3602 16.762-18.4351 28.274-23.2034s24.179-6.0159 36.4-3.5851c12.22 2.4309 23.446 8.4311 32.257 17.2418 8.81 8.8107 14.811 20.0367 17.241 32.2567 2.431 12.221 1.184 24.888-3.585 36.4-4.768 11.512-12.843 21.351-23.203 28.274C201.641 199.305 189.46 203 177 203v7Z" stroke="#000" stroke-width="8" stroke-dasharray="8 16 24 32" mask="url(#path-3-inside-2_15_21)"/>
      </g>
      <g id="Ellipse3">
        <mask id="path-4-inside-3_15_21" fill="#fff">
          <path d="M96 140c0 16.02 4.751 31.681 13.651 45.001 8.9 13.321 21.551 23.703 36.352 29.833 14.8 6.131 31.087 7.735 46.799 4.61 15.713-3.126 30.146-10.84 41.474-22.168 11.328-11.328 19.042-25.761 22.168-41.474 3.125-15.712 1.521-31.999-4.61-46.799-6.13-14.8012-16.512-27.4516-29.833-36.352C208.681 63.7506 193.02 59 177 59v8.1c14.418 0 28.513 4.2755 40.501 12.2859 11.988 8.0103 21.332 19.3957 26.85 32.7161 5.517 13.321 6.961 27.979 4.148 42.12-2.813 14.141-9.756 27.131-19.951 37.326s-23.185 17.138-37.326 19.951c-14.141 2.813-28.799 1.369-42.12-4.148-13.32-5.518-24.706-14.862-32.716-26.85-8.01-11.988-12.286-26.083-12.286-40.501H96Z"/>
        </mask>
        <path d="M96 140c0 16.02 4.751 31.681 13.651 45.001 8.9 13.321 21.551 23.703 36.352 29.833 14.8 6.131 31.087 7.735 46.799 4.61 15.713-3.126 30.146-10.84 41.474-22.168 11.328-11.328 19.042-25.761 22.168-41.474 3.125-15.712 1.521-31.999-4.61-46.799-6.13-14.8012-16.512-27.4516-29.833-36.352C208.681 63.7506 193.02 59 177 59v8.1c14.418 0 28.513 4.2755 40.501 12.2859 11.988 8.0103 21.332 19.3957 26.85 32.7161 5.517 13.321 6.961 27.979 4.148 42.12-2.813 14.141-9.756 27.131-19.951 37.326s-23.185 17.138-37.326 19.951c-14.141 2.813-28.799 1.369-42.12-4.148-13.32-5.518-24.706-14.862-32.716-26.85-8.01-11.988-12.286-26.083-12.286-40.501H96Z" stroke="#000" stroke-width="8" stroke-dasharray="8 16 24 32" mask="url(#path-4-inside-3_15_21)"/>
      </g>
      <g id="Ellipse4">
        <mask id="path-5-inside-4_15_21" fill="#fff">
          <path d="M177 45c-18.789 0-37.156 5.5717-52.779 16.0104-15.623 10.4387-27.7992 25.2757-34.9895 42.6346-7.1904 17.359-9.0717 36.46-5.4061 54.889 3.6656 18.428 12.7135 35.355 25.9996 48.641 13.286 13.286 30.213 22.334 48.641 26 18.429 3.665 37.53 1.784 54.889-5.406 17.359-7.191 32.196-19.367 42.635-34.99C266.428 177.157 272 158.789 272 140h-9.5c0 16.91-5.014 33.441-14.409 47.501-9.395 14.061-22.748 25.019-38.372 31.491-15.623 6.471-32.814 8.164-49.399 4.865-16.586-3.299-31.82-11.442-43.778-23.399-11.957-11.958-20.1001-27.192-23.3991-43.778-3.2991-16.585-1.6059-33.776 4.8654-49.399 6.4717-15.6235 17.4297-28.9768 31.4907-38.3717C143.559 59.5145 160.09 54.5 177 54.5V45Z"/>
        </mask>
        <path d="M177 45c-18.789 0-37.156 5.5717-52.779 16.0104-15.623 10.4387-27.7992 25.2757-34.9895 42.6346-7.1904 17.359-9.0717 36.46-5.4061 54.889 3.6656 18.428 12.7135 35.355 25.9996 48.641 13.286 13.286 30.213 22.334 48.641 26 18.429 3.665 37.53 1.784 54.889-5.406 17.359-7.191 32.196-19.367 42.635-34.99C266.428 177.157 272 158.789 272 140h-9.5c0 16.91-5.014 33.441-14.409 47.501-9.395 14.061-22.748 25.019-38.372 31.491-15.623 6.471-32.814 8.164-49.399 4.865-16.586-3.299-31.82-11.442-43.778-23.399-11.957-11.958-20.1001-27.192-23.3991-43.778-3.2991-16.585-1.6059-33.776 4.8654-49.399 6.4717-15.6235 17.4297-28.9768 31.4907-38.3717C143.559 59.5145 160.09 54.5 177 54.5V45Z" stroke="#000" stroke-width="8" stroke-dasharray="8 16 24 32" mask="url(#path-5-inside-4_15_21)"/>
      </g>
    </g>
    <g id="Motto" fill="#000">
      <path id="Merriweather Sans/39px: Regular" d="M59.3625 264v-18.6l1.375.025c.4083 0 .825-.013 1.25-.038.425-.033.8833-.062 1.375-.087.4917-.033 1.0417-.05 1.65-.05 1.425 0 2.5958.183 3.5125.55.9167.367 1.5958.883 2.0375 1.55.4417.658.6625 1.433.6625 2.325 0 .583-.1 1.175-.3 1.775-.1917.6-.4958 1.129-.9125 1.587-.4167.45-.9542.763-1.6125.938.7583.042 1.4375.275 2.0375.7.6083.417 1.0917.954 1.45 1.612.3583.65.5375 1.359.5375 2.125 0 1.125-.225 2.121-.675 2.988-.45.867-1.2208 1.546-2.3125 2.037-1.0917.492-2.6042.738-4.5375.738-.725 0-1.475-.025-2.25-.075-.775-.042-1.3875-.075-1.8375-.1h-1.45Zm2.9-10.638c.225.034.475.059.75.075.275.009.5583.013.85.013.2917-.008.5708-.013.8375-.013.275-.008.525-.012.75-.012.85 0 1.55-.275 2.1-.825.5583-.55.8375-1.392.8375-2.525 0-.942-.3333-1.638-1-2.088-.6667-.45-1.6208-.675-2.8625-.675-.15 0-.3875.009-.7125.025-.3167.009-.625.025-.925.05-.3.025-.5083.059-.625.1v5.875Zm0 8.425c.1417.084.3875.146.7375.188.35.042.725.071 1.125.087.4083.009.7583.013 1.05.013 1.3417 0 2.3917-.246 3.15-.738.7583-.491 1.1375-1.366 1.1375-2.625 0-1.125-.3417-1.941-1.025-2.45-.675-.516-1.7292-.775-3.1625-.775H64.5c-.275-.008-.5542-.008-.8375 0-.275 0-.5333.005-.775.013-.2417.008-.45.025-.625.05v6.237ZM75.7783 264v-20.325h2.9V264h-2.9Zm10.5975.2c-.8334 0-1.575-.163-2.225-.488-.6417-.333-1.15-.8-1.525-1.4-.3667-.608-.55-1.325-.55-2.15 0-.891.2375-1.645.7125-2.262.4833-.625 1.1291-1.113 1.9375-1.463.5333-.216 1.1125-.387 1.7375-.512.625-.133 1.25-.225 1.875-.275.625-.058 1.2041-.088 1.7375-.088l.6.763-.6 1.012c-.325 0-.7167.025-1.175.075-.45.042-.8959.113-1.3375.213-.4417.092-.8167.212-1.125.362-.425.192-.7792.438-1.0625.738-.2834.3-.425.717-.425 1.25 0 .7.1916 1.229.575 1.587.3916.359.9708.538 1.7375.538.3916 0 .7875-.058 1.1875-.175.4-.117.7458-.25 1.0375-.4.3-.15.4958-.279.5875-.388l.575.613-.4125 1.075c-.3667.333-.8959.646-1.5875.937-.6917.292-1.45.438-2.275.438Zm6.5875-.2h-2.725v-2.075h-.1625v-7.675c0-.817-.2167-1.354-.65-1.613-.425-.266-1.0334-.4-1.825-.4-.525 0-1.0667.055-1.625.163-.5584.1-1.0709.229-1.5375.387-.4667.15-.825.305-1.075.463l-.675-2.075c.1916-.117.5583-.279 1.1-.488.55-.208 1.1875-.395 1.9125-.562.7333-.175 1.4583-.263 2.175-.263 1.0416 0 1.9416.121 2.7.363.7666.242 1.3541.692 1.7625 1.35.4166.65.625 1.596.625 2.837V264Zm2.8053-6.8c0-1.375.25-2.613.75-3.713s1.25-1.97 2.25-2.612c1-.65 2.2504-.975 3.7504-.975.875 0 1.616.079 2.225.237.608.159 1.025.313 1.25.463l-.45 2.275c-.35-.242-.771-.421-1.263-.538-.492-.125-1.087-.187-1.787-.187-.625 0-1.23.154-1.813.462-.583.3-1.0708.784-1.4624 1.45-.3917.667-.6084 1.546-.65 2.638-.0334 1.15.1166 2.121.45 2.912.3416.784.8083 1.38 1.4004 1.788.6.4 1.266.6 2 .6.691 0 1.329-.088 1.912-.263.592-.175 1.038-.354 1.338-.537l.55 1.675c-.425.4-1.025.721-1.8.962-.775.242-1.6.363-2.475.363-1.325 0-2.4463-.308-3.3629-.925-.9167-.617-1.6167-1.45-2.1-2.5-.475-1.058-.7125-2.25-.7125-3.575Zm24.9444-7.125-9.1 9.5.25-.675.05 2.4v2.7h-2.8v-20.275h2.8v10.6l-.1 3.05-.675-.475 6.2-6.825h3.375Zm-7.35 7.075 1.95-1.875 6 8.725h-3.275l-4.675-6.85Zm14.733 6.85v-18.575h2.95v8.075h8.475v-8.075h2.925V264h-2.925v-8.25h-8.475V264h-2.95Zm23.913.2c-1.133 0-2.096-.2-2.888-.6-.791-.4-1.433-.946-1.925-1.638-.491-.691-.85-1.483-1.075-2.375-.216-.9-.32-1.845-.312-2.837.025-1.492.321-2.746.887-3.763.567-1.016 1.334-1.783 2.3-2.3.967-.525 2.055-.787 3.263-.787 1.517 0 2.729.346 3.637 1.037.917.684 1.575 1.592 1.975 2.725.409 1.125.605 2.346.588 3.663-.025 1.492-.321 2.75-.888 3.775-.558 1.017-1.32 1.787-2.287 2.312-.958.525-2.05.788-3.275.788Zm.075-2.037c1.142.016 2-.413 2.575-1.288.583-.883.875-2.104.875-3.663 0-.966-.117-1.841-.35-2.625-.233-.791-.6-1.425-1.1-1.9-.492-.475-1.125-.716-1.9-.725-1.133-.025-1.988.384-2.563 1.225-.575.842-.862 2.042-.862 3.6 0 .967.117 1.855.35 2.663.233.808.596 1.458 1.087 1.95.492.492 1.121.746 1.888.763Zm9.778 1.837v-20.325h2.9V264h-2.9Zm12.623.2c-2 0-3.542-.633-4.625-1.9-1.084-1.267-1.625-3.025-1.625-5.275 0-1.35.237-2.558.712-3.625.484-1.067 1.192-1.913 2.125-2.537.942-.626 2.096-.946 3.463-.963.7-.017 1.358.083 1.975.3.616.217 1.162.546 1.637.987.475.434.85.984 1.125 1.65.284.667.438 1.446.463 2.338 0 .525-.004.996-.013 1.412-.008.409-.046.771-.112 1.088h-9.7l.25-1.825h6.875c.041-.667 0-1.296-.125-1.888-.117-.6-.375-1.083-.775-1.45-.392-.375-.975-.562-1.75-.562-.65 0-1.234.183-1.75.55-.517.358-.917.967-1.2 1.825-.284.858-.4 2.033-.35 3.525.05 1.05.262 1.879.637 2.487.375.609.867 1.042 1.475 1.3.609.259 1.288.388 2.038.388.316 0 .704-.033 1.162-.1.459-.075.9-.167 1.325-.275.434-.117.763-.242.988-.375l.55 1.65c-.309.25-.729.471-1.263.663-.525.191-1.096.341-1.712.45-.617.108-1.217.162-1.8.162Zm17.845 0c-.808 0-1.575-.062-2.3-.187-.717-.117-1.333-.259-1.85-.425-.517-.167-.888-.321-1.113-.463l.613-2.388c.317.184.712.363 1.187.538.475.175.996.321 1.563.437.567.109 1.142.163 1.725.163 1.142 0 2.012-.192 2.612-.575.6-.383.9-1.008.9-1.875 0-.583-.15-1.071-.45-1.463-.3-.4-.75-.775-1.35-1.125-.591-.35-1.333-.737-2.225-1.162-.758-.375-1.495-.825-2.212-1.35-.708-.525-1.292-1.142-1.75-1.85-.458-.708-.688-1.521-.688-2.438 0-.9.175-1.654.525-2.262.359-.617.838-1.113 1.438-1.488s1.267-.645 2-.812c.742-.167 1.5-.25 2.275-.25 1.133 0 2.071.112 2.812.337.742.217 1.275.434 1.6.65l-.575 2.313c-.425-.267-.925-.504-1.5-.713-.566-.216-1.345-.325-2.337-.325-.608 0-1.171.08-1.688.238-.516.158-.933.4-1.25.725-.316.325-.475.742-.475 1.25 0 .575.117 1.058.35 1.45.242.383.63.746 1.163 1.087.533.334 1.233.725 2.1 1.175.625.325 1.242.671 1.85 1.038.608.358 1.158.758 1.65 1.2.5.442.896.95 1.187 1.525.3.567.45 1.217.45 1.95 0 1.133-.266 2.079-.8 2.837-.525.75-1.258 1.313-2.2 1.688-.933.367-2.012.55-3.237.55Zm14.611 0c-1.134 0-2.096-.2-2.888-.6-.792-.4-1.433-.946-1.925-1.638-.492-.691-.85-1.483-1.075-2.375-.217-.9-.321-1.845-.312-2.837.025-1.492.32-2.746.887-3.763.567-1.016 1.333-1.783 2.3-2.3.967-.525 2.054-.787 3.263-.787 1.516 0 2.729.346 3.637 1.037.917.684 1.575 1.592 1.975 2.725.408 1.125.604 2.346.588 3.663-.025 1.492-.321 2.75-.888 3.775-.558 1.017-1.321 1.787-2.287 2.312-.959.525-2.05.788-3.275.788Zm.075-2.037c1.141.016 2-.413 2.575-1.288.583-.883.875-2.104.875-3.663 0-.966-.117-1.841-.35-2.625-.234-.791-.6-1.425-1.1-1.9-.492-.475-1.125-.716-1.9-.725-1.134-.025-1.988.384-2.563 1.225-.575.842-.862 2.042-.862 3.6 0 .967.116 1.855.35 2.663.233.808.595 1.458 1.087 1.95s1.121.746 1.888.763Zm9.778 1.837v-20.325h2.9V264h-2.9Zm11.197.2c-.908 0-1.641-.142-2.2-.425-.558-.283-.983-.688-1.275-1.213-.291-.533-.491-1.166-.6-1.9-.1-.733-.15-1.545-.15-2.437v-8.15h2.875v8.125c0 1.1.084 1.908.25 2.425.175.517.442.85.8 1 .367.15.842.225 1.425.225.342 0 .705-.05 1.088-.15.392-.108.758-.233 1.1-.375.342-.15.612-.292.812-.425v-10.825h2.875V264.2h-1.325c-.383 0-.687-.058-.912-.175-.225-.108-.338-.392-.338-.85v-.975l.05.55c-.375.25-.816.487-1.325.712-.5.217-1.025.396-1.575.538-.55.133-1.075.2-1.575.2Zm15.185 0c-.658 0-1.237-.104-1.737-.313-.5-.208-.892-.575-1.175-1.1-.275-.533-.413-1.287-.413-2.262V252.2h-1.8v-1.55c.617-.175 1.088-.321 1.413-.438.325-.125.562-.387.712-.787.067-.183.142-.4.225-.65.084-.258.175-.542.275-.85.1-.317.209-.658.325-1.025h1.725v3.175h3.9v2.125h-3.9v6.8c0 .9.038 1.558.113 1.975.083.408.233.671.45.787.225.109.554.163.987.163.234 0 .5-.025.8-.075.309-.058.6-.129.875-.213.284-.083.5-.17.65-.262l.475 1.65c-.25.192-.587.379-1.012.563-.417.174-.879.32-1.388.437-.5.117-1 .175-1.5.175Zm6.797-.2v-13.9h2.875V264h-2.875Zm1.275-16.363c-.484 0-.909-.154-1.275-.462-.359-.308-.538-.729-.538-1.263 0-.366.1-.695.3-.987.208-.3.471-.538.788-.713.316-.183.645-.275.987-.275.592 0 1.038.167 1.338.5.3.334.45.742.45 1.225 0 .575-.209 1.05-.625 1.425-.409.367-.884.55-1.425.55Zm11.21 16.563c-1.133 0-2.096-.2-2.887-.6-.792-.4-1.434-.946-1.925-1.638-.492-.691-.85-1.483-1.075-2.375-.217-.9-.321-1.845-.313-2.837.025-1.492.321-2.746.888-3.763.566-1.016 1.333-1.783 2.3-2.3.966-.525 2.054-.787 3.262-.787 1.517 0 2.729.346 3.638 1.037.916.684 1.575 1.592 1.975 2.725.408 1.125.604 2.346.587 3.663-.025 1.492-.321 2.75-.887 3.775-.559 1.017-1.321 1.787-2.288 2.312-.958.525-2.05.788-3.275.788Zm.075-2.037c1.142.016 2-.413 2.575-1.288.584-.883.875-2.104.875-3.663 0-.966-.116-1.841-.35-2.625-.233-.791-.6-1.425-1.1-1.9-.491-.475-1.125-.716-1.9-.725-1.133-.025-1.987.384-2.562 1.225-.575.842-.863 2.042-.863 3.6 0 .967.117 1.855.35 2.663.234.808.596 1.458 1.088 1.95.491.492 1.121.746 1.887.763Zm9.679 1.837v-13.9h2.587l.013 1.475c.341-.233.77-.479 1.287-.738.525-.258 1.088-.479 1.688-.662.608-.183 1.212-.283 1.812-.3 1.492-.042 2.563.346 3.213 1.162.65.809.975 2.234.975 4.275V264h-2.9v-8.538c0-1.166-.159-2.004-.475-2.512-.309-.508-.984-.733-2.025-.675-.292.008-.63.062-1.013.162-.375.092-.762.23-1.162.413-.392.175-.767.4-1.125.675V264h-2.875Zm14.921-.825.4-2.125c.125.092.383.217.775.375.4.15.875.292 1.425.425.558.125 1.133.192 1.725.2.8.008 1.408-.129 1.825-.413.417-.283.625-.679.625-1.187 0-.358-.125-.671-.375-.938-.25-.266-.596-.512-1.037-.737-.434-.233-.93-.475-1.488-.725-.75-.342-1.412-.713-1.987-1.112-.575-.401-1.025-.871-1.35-1.413-.317-.542-.471-1.192-.463-1.95.017-.825.254-1.508.713-2.05.466-.55 1.083-.958 1.85-1.225.766-.267 1.62-.4 2.562-.4.875 0 1.642.092 2.3.275.658.175 1.092.325 1.3.45l-.425 2.175c-.15-.125-.383-.246-.7-.363-.308-.125-.667-.225-1.075-.3-.408-.075-.825-.112-1.25-.112-.85 0-1.492.125-1.925.375-.433.242-.658.583-.675 1.025-.008.608.2 1.062.625 1.362.433.3.95.596 1.55.888.858.417 1.633.829 2.325 1.237.692.4 1.238.863 1.638 1.388.408.517.612 1.158.612 1.925 0 1.3-.446 2.287-1.337 2.962-.892.675-2.113 1.013-3.663 1.013-.642 0-1.267-.05-1.875-.15-.6-.1-1.133-.229-1.6-.388-.458-.158-.8-.32-1.025-.487Z"/>
      <path id="Merriweather Sans/16px: Regular" d="M115.992 286v-5.056l.28 1.032-4.192-7.864h2.008l2.56 5.056.496 1.216h-.288l.416-1.216 2.52-5.056h1.976l-4.152 7.864.28-1.008V286h-1.904Zm9.611.128c-.726 0-1.342-.128-1.848-.384-.507-.256-.918-.605-1.232-1.048-.315-.443-.544-.949-.688-1.52-.139-.576-.206-1.181-.2-1.816.016-.955.205-1.757.568-2.408.362-.651.853-1.141 1.472-1.472.618-.336 1.314-.504 2.088-.504.97 0 1.746.221 2.328.664.586.437 1.008 1.019 1.264 1.744.261.72.386 1.501.376 2.344-.016.955-.206 1.76-.568 2.416-.358.651-.846 1.144-1.464 1.48-.614.336-1.312.504-2.096.504Zm.048-1.304c.73.011 1.28-.264 1.648-.824.373-.565.56-1.347.56-2.344 0-.619-.075-1.179-.224-1.68-.15-.507-.384-.912-.704-1.216-.315-.304-.72-.459-1.216-.464-.726-.016-1.272.245-1.64.784-.368.539-.552 1.307-.552 2.304 0 .619.074 1.187.224 1.704.149.517.381.933.696 1.248.314.315.717.477 1.208.488Zm8.69 1.304c-.582 0-1.051-.091-1.408-.272-.358-.181-.63-.44-.816-.776-.187-.341-.315-.747-.384-1.216-.064-.469-.096-.989-.096-1.56v-5.216h1.84v5.2c0 .704.053 1.221.16 1.552.112.331.282.544.512.64.234.096.538.144.912.144.218 0 .45-.032.696-.096.25-.069.485-.149.704-.24.218-.096.392-.187.52-.272v-6.928h1.84v9.04h-.848c-.246 0-.44-.037-.584-.112-.144-.069-.216-.251-.216-.544v-.624l.032.352c-.24.16-.523.312-.848.456-.32.139-.656.253-1.008.344-.352.085-.688.128-1.008.128Zm9.377-4.48c0-.88.16-1.672.48-2.376.32-.704.8-1.261 1.44-1.672.64-.416 1.44-.624 2.4-.624.56 0 1.035.051 1.424.152s.656.2.8.296l-.288 1.456c-.224-.155-.493-.269-.808-.344-.315-.08-.696-.12-1.144-.12-.4 0-.787.099-1.16.296-.373.192-.685.501-.936.928-.251.427-.389.989-.416 1.688-.021.736.075 1.357.288 1.864.219.501.517.883.896 1.144.384.256.811.384 1.28.384.443 0 .851-.056 1.224-.168.379-.112.664-.227.856-.344l.352 1.072c-.272.256-.656.461-1.152.616-.496.155-1.024.232-1.584.232-.848 0-1.565-.197-2.152-.592-.587-.395-1.035-.928-1.344-1.6-.304-.677-.456-1.44-.456-2.288Zm10.661 4.48c-.534 0-1.008-.104-1.424-.312-.411-.213-.736-.512-.976-.896-.235-.389-.352-.848-.352-1.376 0-.571.152-1.053.456-1.448.309-.4.722-.712 1.24-.936.341-.139.712-.248 1.112-.328.4-.085.8-.144 1.2-.176.4-.037.77-.056 1.112-.056l.384.488-.384.648c-.208 0-.459.016-.752.048-.288.027-.574.072-.856.136-.283.059-.523.136-.72.232-.272.123-.499.28-.68.472-.182.192-.272.459-.272.8 0 .448.122.787.368 1.016.25.229.621.344 1.112.344.25 0 .504-.037.76-.112.256-.075.477-.16.664-.256.192-.096.317-.179.376-.248l.368.392-.264.688c-.235.213-.574.413-1.016.6-.443.187-.928.28-1.456.28Zm4.216-.128h-1.744v-1.328h-.104v-4.912c0-.523-.139-.867-.416-1.032-.272-.171-.662-.256-1.168-.256-.336 0-.683.035-1.04.104-.358.064-.686.147-.984.248-.299.096-.528.195-.688.296l-.432-1.328c.122-.075.357-.179.704-.312.352-.133.76-.253 1.224-.36.469-.112.933-.168 1.392-.168.666 0 1.242.077 1.728.232.49.155.866.443 1.128.864.266.416.4 1.021.4 1.816V286Zm2.609 0v-8.896h1.656l.008.944c.219-.149.493-.307.824-.472.336-.165.696-.307 1.08-.424.389-.117.776-.181 1.16-.192.955-.027 1.64.221 2.056.744.416.517.624 1.429.624 2.736V286h-1.856v-5.464c0-.747-.101-1.283-.304-1.608-.197-.325-.629-.469-1.296-.432-.187.005-.403.04-.648.104-.24.059-.488.147-.744.264-.251.112-.491.256-.72.432V286h-1.84Zm10.494-7.472-.8-.512v-.24c.123-.133.227-.32.312-.56.091-.24.16-.499.208-.776.048-.277.072-.539.072-.784 0-.427-.08-.805-.24-1.136-.16-.336-.323-.552-.488-.648v-.488l1.152-.856c.24.107.456.264.648.472.192.208.341.477.448.808.112.331.168.733.168 1.208 0 .651-.088 1.216-.264 1.696-.171.475-.371.864-.6 1.168-.229.304-.435.52-.616.648Zm6.205 7.6c-.421 0-.792-.067-1.112-.2-.32-.133-.571-.368-.752-.704-.176-.341-.264-.824-.264-1.448v-5.328h-1.152v-.992c.395-.112.696-.205.904-.28.208-.08.36-.248.456-.504.043-.117.091-.256.144-.416.053-.165.112-.347.176-.544.064-.203.133-.421.208-.656h1.104v2.032h2.496v1.36h-2.496v4.352c0 .576.024.997.072 1.264.053.261.149.429.288.504.144.069.355.104.632.104.149 0 .32-.016.512-.048.197-.037.384-.083.56-.136.181-.053.32-.109.416-.168l.304 1.056c-.16.123-.376.243-.648.36-.267.112-.563.205-.888.28-.32.075-.64.112-.96.112Zm10.569 0c-1.28 0-2.267-.405-2.96-1.216-.694-.811-1.04-1.936-1.04-3.376 0-.864.152-1.637.456-2.32.309-.683.762-1.224 1.36-1.624.602-.4 1.341-.605 2.216-.616.448-.011.869.053 1.264.192.394.139.744.349 1.048.632.304.277.544.629.72 1.056.181.427.28.925.296 1.496 0 .336-.003.637-.008.904-.006.261-.03.493-.072.696h-6.208l.16-1.168h4.4c.026-.427 0-.829-.08-1.208-.075-.384-.24-.693-.496-.928-.251-.24-.624-.36-1.12-.36-.416 0-.79.117-1.12.352-.331.229-.587.619-.768 1.168-.182.549-.256 1.301-.224 2.256.032.672.168 1.203.408 1.592.24.389.554.667.944.832.389.165.824.248 1.304.248.202 0 .45-.021.744-.064.293-.048.576-.107.848-.176.277-.075.488-.155.632-.24l.352 1.056c-.198.16-.467.301-.808.424-.336.123-.702.219-1.096.288-.395.069-.779.104-1.152.104Zm4.969-.656.256-1.36c.08.059.246.139.496.24.256.096.56.187.912.272.358.08.726.123 1.104.128.512.005.902-.083 1.168-.264.267-.181.4-.435.4-.76 0-.229-.08-.429-.24-.6-.16-.171-.381-.328-.664-.472-.277-.149-.594-.304-.952-.464-.48-.219-.904-.456-1.272-.712-.368-.256-.656-.557-.864-.904-.202-.347-.301-.763-.296-1.248.011-.528.163-.965.456-1.312.299-.352.694-.613 1.184-.784.491-.171 1.038-.256 1.64-.256.56 0 1.051.059 1.472.176.422.112.699.208.832.288l-.272 1.392c-.096-.08-.245-.157-.448-.232-.197-.08-.426-.144-.688-.192-.261-.048-.528-.072-.8-.072-.544 0-.954.08-1.232.24-.277.155-.421.373-.432.656-.005.389.128.68.4.872.278.192.608.381.992.568.55.267 1.046.531 1.488.792.443.256.792.552 1.048.888.262.331.392.741.392 1.232 0 .832-.285 1.464-.856 1.896-.57.432-1.352.648-2.344.648-.41 0-.81-.032-1.2-.096-.384-.064-.725-.147-1.024-.248-.293-.101-.512-.205-.656-.312Zm7.496-3.824c0-.88.16-1.672.48-2.376.32-.704.8-1.261 1.44-1.672.64-.416 1.44-.624 2.4-.624.56 0 1.035.051 1.424.152s.656.2.8.296l-.288 1.456c-.224-.155-.493-.269-.808-.344-.315-.08-.696-.12-1.144-.12-.4 0-.787.099-1.16.296-.373.192-.685.501-.936.928-.251.427-.389.989-.416 1.688-.021.736.075 1.357.288 1.864.219.501.517.883.896 1.144.384.256.811.384 1.28.384.443 0 .851-.056 1.224-.168.379-.112.664-.227.856-.344l.352 1.072c-.272.256-.656.461-1.152.616-.496.155-1.024.232-1.584.232-.848 0-1.565-.197-2.152-.592-.587-.395-1.035-.928-1.344-1.6-.304-.677-.456-1.44-.456-2.288Zm10.66 4.48c-.533 0-1.008-.104-1.424-.312-.41-.213-.736-.512-.976-.896-.234-.389-.352-.848-.352-1.376 0-.571.152-1.053.456-1.448.31-.4.723-.712 1.24-.936.342-.139.712-.248 1.112-.328.4-.085.8-.144 1.2-.176.4-.037.771-.056 1.112-.056l.384.488-.384.648c-.208 0-.458.016-.752.048-.288.027-.573.072-.856.136-.282.059-.522.136-.72.232-.272.123-.498.28-.68.472-.181.192-.272.459-.272.8 0 .448.123.787.368 1.016.251.229.622.344 1.112.344.251 0 .504-.037.76-.112.256-.075.478-.16.664-.256.192-.096.318-.179.376-.248l.368.392-.264.688c-.234.213-.573.413-1.016.6-.442.187-.928.28-1.456.28Zm4.216-.128h-1.744v-1.328h-.104v-4.912c0-.523-.138-.867-.416-1.032-.272-.171-.661-.256-1.168-.256-.336 0-.682.035-1.04.104-.357.064-.685.147-.984.248-.298.096-.528.195-.688.296l-.432-1.328c.123-.075.358-.179.704-.312.352-.133.76-.253 1.224-.36.47-.112.934-.168 1.392-.168.667 0 1.243.077 1.728.232.491.155.867.443 1.128.864.267.416.4 1.021.4 1.816V286Zm2.53 3.952v-12.864h1.68v1.088l.16.192v6.896l-.016.368.016 1.456v2.864h-1.84Zm3.288-3.824c-.549 0-1.008-.069-1.376-.208-.368-.139-.605-.251-.712-.336l.64-1.184c.171.144.384.248.64.312.261.059.573.088.936.088.459 0 .872-.128 1.24-.384.368-.261.659-.64.872-1.136.219-.501.333-1.112.344-1.832.011-1.067-.176-1.84-.56-2.32-.379-.485-.909-.728-1.592-.728-.416 0-.787.08-1.112.24-.32.155-.576.307-.768.456l-.288-.912c.123-.128.291-.288.504-.48.213-.192.496-.36.848-.504.352-.149.795-.224 1.328-.224.629 0 1.211.155 1.744.464.539.304.971.771 1.296 1.4.325.624.488 1.416.488 2.376 0 .965-.187 1.819-.56 2.56-.368.736-.888 1.312-1.56 1.728-.667.416-1.451.624-2.352.624Zm9.997 0c-1.28 0-2.267-.405-2.96-1.216-.694-.811-1.04-1.936-1.04-3.376 0-.864.152-1.637.456-2.32.309-.683.762-1.224 1.36-1.624.602-.4 1.341-.605 2.216-.616.448-.011.869.053 1.264.192.394.139.744.349 1.048.632.304.277.544.629.72 1.056.181.427.28.925.296 1.496 0 .336-.003.637-.008.904-.006.261-.03.493-.072.696H228.7l.16-1.168h4.4c.026-.427 0-.829-.08-1.208-.075-.384-.24-.693-.496-.928-.251-.24-.624-.36-1.12-.36-.416 0-.79.117-1.12.352-.331.229-.587.619-.768 1.168-.182.549-.256 1.301-.224 2.256.032.672.168 1.203.408 1.592.24.389.554.667.944.832.389.165.824.248 1.304.248.202 0 .45-.021.744-.064.293-.048.576-.107.848-.176.277-.075.488-.155.632-.24l.352 1.056c-.198.16-.467.301-.808.424-.336.123-.702.219-1.096.288-.395.069-.779.104-1.152.104Z"/>
    </g>
  </g>
</svg>
